# xmcd
#
# Track frame offsets: 
#        150
#        6832
#        29739
#        43007
#        66405
#        73316
#        106763
#        115569
#        131381
#        137529
#        160019
#        173580
#        195088
#        201520
#        228324
#        236762
#        261316
#        267588
#        288906
#        299647
#        317305
#
# Disc length: 4360 seconds
#
# Revision: 1
# Processed by: cddbd v1.5.2PL0 Copyright (c) Steve Scherf et al.
# Submitted via: ExactAudioCopy v0.99pb4
#
DISCID=34110615
DTITLE=Hank Williams - Mother's Best [CD1]
DYEAR=1951
DGENRE=Country
TTITLE0=Mother's Best 1-A1
TTITLE1=The Blind Child
TTITLE2=Blue Steel Blues
TTITLE3=When God Dips His Love In My Heart
TTITLE4=Mother's Best 1-A2
TTITLE5=Where The Old Red River Flows
TTITLE6=Moonlit Waters
TTITLE7=How Can You Refuse Him Now
TTITLE8=Mother's Best 1- B1
TTITLE9=Moanin' The Blues
TTITLE10=Honky Tonkin' (Audrey)
TTITLE11=I'll Have A New Body
TTITLE12=Mother's Best 1-B2
TTITLE13=Alabama Waltz
TTITLE14=Fire On The Mountain
TTITLE15=Lord Build Me A Cabin
TTITLE16=Mother's Best 2-1A
TTITLE17=Nobody's Lonesome For Me
TTITLE18=Twin Guitar Polka
TTITLE19=Gathering Flowers For The Masters' Bouquet
TTITLE20=Mother's Best
EXTD=
EXTT0=
EXTT1=
EXTT2=
EXTT3=
EXTT4=
EXTT5=
EXTT6=
EXTT7=
EXTT8=
EXTT9=
EXTT10=
EXTT11=
EXTT12=
EXTT13=
EXTT14=
EXTT15=
EXTT16=
EXTT17=
EXTT18=
EXTT19=
EXTT20=
PLAYORDER=
